<svg xmlns="http://www.w3.org/2000/svg"><symbol id="members" viewBox="0 0 100 100"><circle cx="38" cy="31" r="18" fill="#36a9ff" stroke="#07558e" stroke-width="5"/><circle cx="68" cy="35" r="15" fill="#218de2" stroke="#07558e" stroke-width="5"/><path d="M10 88c0-25 13-38 30-38s31 13 31 38Z" fill="#36a9ff" stroke="#07558e" stroke-width="5"/><path d="M53 88c1-20 9-32 23-32 13 0 21 11 22 32Z" fill="#218de2" stroke="#07558e" stroke-width="5"/></symbol><symbol id="swords" viewBox="0 0 100 100"><path d="M17 12l24 18-9 9 39 39-10 10-39-39-9 9-8-38Z" fill="#dce7ee" stroke="#4d4a43" stroke-width="5"/><path d="M83 12L59 30l9 9-39 39 10 10 39-39 9 9 8-38Z" fill="#f3f5f6" stroke="#4d4a43" stroke-width="5"/><path d="M18 78l16 16m48-16L66 94" stroke="#a65d19" stroke-width="10"/></symbol><symbol id="fire" viewBox="0 0 100 100"><path d="M55 7c8 24-4 28 7 42 3-11 12-16 14-25 18 19 20 43 5 59-16 18-49 15-60-7-11-23 4-42 23-58-2 17 3 22 11 29 4-15 3-26 0-40Z" fill="#ff8a00" stroke="#a93b00" stroke-width="5"/><path d="M50 47c13 14 15 26 7 37-9 10-25 2-24-10 1-9 8-16 17-27Z" fill="#ffd33d"/></symbol><symbol id="star" viewBox="0 0 100 100"><path d="M50 7l13 27 30 4-22 21 6 30-27-15-27 15 6-30L7 38l30-4Z" fill="#ffc928" stroke="#9e6500" stroke-width="5"/></symbol><symbol id="potion" viewBox="0 0 100 100"><path d="M36 9h28v16l10 12c8 10 12 23 9 36-4 17-17 22-33 22S21 90 17 73c-3-13 1-26 9-36l10-12Z" fill="#48d82b" stroke="#4c3b20" stroke-width="5"/><rect x="33" y="8" width="34" height="13" rx="4" fill="#c99543" stroke="#4c3b20" stroke-width="4"/><path d="M23 62h55" stroke="#b9ff75" stroke-width="5" opacity=".8"/></symbol><symbol id="alert" viewBox="0 0 100 100"><path d="M50 6l37 14v34c0 22-14 34-37 42-23-8-37-20-37-42V20Z" fill="#e73535" stroke="#7d1717" stroke-width="6"/><path d="M50 25v36" stroke="white" stroke-width="10" stroke-linecap="round"/><circle cx="50" cy="76" r="6" fill="white"/></symbol><symbol id="capital" viewBox="0 0 100 100"><path d="M50 5l37 18-7 45-30 26-30-26-7-45Z" fill="#7f2bd6" stroke="#5d3315" stroke-width="6"/><path d="M50 15l23 12-5 33-18 18-18-18-5-33Z" fill="#c650ff"/><path d="M50 8v70" stroke="#ffcb31" stroke-width="7"/></symbol></svg>