<svg xmlns="http://www.w3.org/2000/svg" viewBox="0 0 500 300" preserveAspectRatio="none"><defs><linearGradient id="s" x2="0" y2="1"><stop stop-color="#f4e8c9"/><stop offset="1" stop-color="#d5c29a"/></linearGradient><filter id="n"><feTurbulence baseFrequency=".035" numOctaves="3" seed="7" result="t"/><feBlend in="SourceGraphic" in2="t" mode="soft-light"/></filter></defs><path d="M25 7H475L493 25V273L475 293H25L7 274V26Z" fill="#85765f" stroke="#574b3b" stroke-width="8"/><path d="M34 18H466L480 32V266L465 281H34L20 266V34Z" fill="url(#s)" stroke="#fff7df" stroke-width="7" filter="url(#n)"/><path d="M34 18l24 13m84-13 20 13m94-13 22 13m93-13 18 13M20 89l17 18m-17 79 17 16M480 75l-18 18m18 98-18 17M70 281l20-17m100 17 19-17m112 17 20-17m82 17 19-17" fill="none" stroke="#b7a57f" stroke-width="5" opacity=".8"/></svg>