<svg xmlns="http://www.w3.org/2000/svg" viewBox="0 0 1600 430" preserveAspectRatio="xMidYMid slice"><defs><linearGradient id="sky" x2="0" y2="1"><stop stop-color="#168bd0"/><stop offset=".6" stop-color="#8fd5e9"/><stop offset="1" stop-color="#7db65d"/></linearGradient><linearGradient id="hill" x2="0" y2="1"><stop stop-color="#4b9b4c"/><stop offset="1" stop-color="#1e6639"/></linearGradient></defs><rect width="1600" height="430" fill="url(#sky)"/><path d="M0 290Q180 180 370 280T730 260T1080 245T1600 250V430H0Z" fill="#4b8d4a"/><path d="M0 345Q220 250 480 330T930 315T1280 300T1600 315V430H0Z" fill="url(#hill)"/><g fill="#1e5d35"><path d="M110 280l35-105 35 105h-22l29 65H102l29-65Z"/><path d="M330 300l28-88 28 88h-18l23 53h-67l22-53Z"/><path d="M1280 292l34-105 34 105h-22l28 64h-80l27-64Z"/><path d="M1450 305l30-90 30 90h-19l24 55h-70l24-55Z"/></g><g transform="translate(1080 145)"><rect x="0" y="70" width="210" height="130" rx="8" fill="#9b7455" stroke="#58412f" stroke-width="8"/><rect x="55" y="15" width="95" height="185" fill="#aa8260" stroke="#58412f" stroke-width="8"/><path d="M45 20L102-25l58 45Z" fill="#6b5264" stroke="#493744" stroke-width="8"/><rect x="87" y="125" width="35" height="75" fill="#ffb13a"/><circle cx="102" cy="72" r="18" fill="#ffcf54"/></g><g fill="white" opacity=".75"><ellipse cx="520" cy="92" rx="95" ry="30"/><ellipse cx="600" cy="115" rx="75" ry="24"/><ellipse cx="850" cy="70" rx="110" ry="32"/></g></svg>