<svg xmlns="http://www.w3.org/2000/svg" viewBox="0 0 420 260"><defs><linearGradient id="s" x1="0" y1="0" x2="0" y2="1"><stop stop-color="#f4ead5"/><stop offset=".55" stop-color="#ddceb1"/><stop offset="1" stop-color="#c1aa83"/></linearGradient><filter id="sh" x="-20%" y="-20%" width="140%" height="150%"><feDropShadow dx="0" dy="9" stdDeviation="5" flood-color="#111" flood-opacity=".55"/></filter><filter id="noise"><feTurbulence type="fractalNoise" baseFrequency=".8" numOctaves="2" seed="4" result="n"/><feColorMatrix in="n" type="saturate" values="0"/><feComponentTransfer><feFuncA type="table" tableValues="0 .07"/></feComponentTransfer></filter></defs><g filter="url(#sh)"><path d="M22 8h376l14 14v216l-16 14H24L8 236V24z" fill="#857763" stroke="#51483b" stroke-width="8"/><path d="M30 18h360l12 12v198l-14 12H32l-14-12V32z" fill="url(#s)" stroke="#fff7e5" stroke-width="5"/><path d="M30 18l22 10-13 12 9 18-20 8-10-34zM390 18l-22 10 13 12-9 18 20 8 10-34zM30 240l22-10-13-12 9-18-20-8-10 34zM390 240l-22-10 13-12-9-18 20-8 10 34z" fill="#b29d7b" stroke="#7c6d55" stroke-width="3"/><rect x="29" y="28" width="362" height="198" rx="14" filter="url(#noise)" opacity=".9"/><path d="M48 48h322" stroke="#fff" stroke-opacity=".45" stroke-width="3"/></g></svg>